<svg xmlns="http://www.w3.org/2000/svg" viewBox="0 0 200 200" width="200" height="200">
  <defs>
    <!-- 主渐变 -->
    <linearGradient id="mainGradient" x1="0%" y1="0%" x2="100%" y2="100%">
      <stop offset="0%" style="stop-color:#6366F1;stop-opacity:1" />
      <stop offset="100%" style="stop-color:#8B5CF6;stop-opacity:1" />
    </linearGradient>
    <!-- 辅助渐变 -->
    <linearGradient id="accentGradient" x1="0%" y1="0%" x2="100%" y2="100%">
      <stop offset="0%" style="stop-color:#06B6D4;stop-opacity:1" />
      <stop offset="100%" style="stop-color:#3B82F6;stop-opacity:1" />
    </linearGradient>
  </defs>
  
  <!-- 外层六边形轮廓 -->
  <g transform="translate(100, 100)">
    <path d="M 0,-50 L 43,-25 L 43,25 L 0,50 L -43,25 L -43,-25 Z" 
          fill="none" stroke="url(#mainGradient)" stroke-width="2" opacity="0.3"/>
  </g>
  
  <!-- 中层六边形 -->
  <g transform="translate(100, 100)">
    <path d="M 0,-36 L 31,-18 L 31,18 L 0,36 L -31,18 L -31,-18 Z" 
          fill="url(#accentGradient)" opacity="0.15" stroke="none"/>
  </g>
  
  <!-- 中央六边形 - 核心 -->
  <g transform="translate(100, 100)">
    <path d="M 0,-28 L 24,-14 L 24,14 L 0,28 L -24,14 L -24,-14 Z" 
          fill="url(#mainGradient)" stroke="none"/>
    
    <!-- 内部文档图标 -->
    <rect x="-10" y="-8" width="20" height="3" rx="1" fill="white" opacity="0.95"/>
    <rect x="-10" y="-2" width="20" height="3" rx="1" fill="white" opacity="0.95"/>
    <rect x="-10" y="4" width="12" height="3" rx="1" fill="white" opacity="0.95"/>
  </g>
  
  <!-- 六个小圆点 - 在外层六边形的顶点 -->
  <circle cx="100" cy="50" r="3" fill="url(#mainGradient)" opacity="0.6"/>
  <circle cx="143" cy="75" r="3" fill="url(#mainGradient)" opacity="0.6"/>
  <circle cx="143" cy="125" r="3" fill="url(#mainGradient)" opacity="0.6"/>
  <circle cx="100" cy="150" r="3" fill="url(#mainGradient)" opacity="0.6"/>
  <circle cx="57" cy="125" r="3" fill="url(#mainGradient)" opacity="0.6"/>
  <circle cx="57" cy="75" r="3" fill="url(#mainGradient)" opacity="0.6"/>
</svg>
